<svg width="630" height="116" viewBox="0 0 630 116" fill="none" xmlns="http://www.w3.org/2000/svg">
<path d="M176.7 72.5V61.9H206.3C209.833 61.9 212.633 60.9667 214.7 59.1C216.767 57.1667 217.8 54.5 217.8 51.1C217.8 47.5667 216.767 44.8667 214.7 43C212.633 41.1333 209.833 40.2 206.3 40.2H178.3V93.5H165V28.8H205.1C208.7 28.8 212.067 29.2333 215.2 30.1C218.4 30.9667 221.167 32.3 223.5 34.1C225.9 35.9 227.767 38.2 229.1 41C230.433 43.8 231.1 47.1667 231.1 51.1C231.1 54.9667 230.433 58.2667 229.1 61C227.767 63.7333 225.9 65.9667 223.5 67.7C221.167 69.3667 218.4 70.6 215.2 71.4C212.067 72.1333 208.7 72.5 205.1 72.5H176.7Z" fill="white"/>
<path d="M256.818 22V33.4H241.718V22H256.818ZM242.718 43.8H255.718V93.5H242.718V43.8Z" fill="white"/>
<path d="M269.576 23.8H282.576V93.5H269.576V23.8ZM324.476 43.8L294.876 69.9L295.176 61.9L326.776 93.5H310.276L282.876 65.6L306.776 43.8H324.476Z" fill="white"/>
<path d="M360.085 94.7C353.818 94.7 348.285 93.7 343.485 91.7C338.752 89.7 335.052 86.8 332.385 83C329.718 79.1333 328.385 74.4 328.385 68.8C328.385 63.2 329.718 58.4667 332.385 54.6C335.052 50.6667 338.752 47.7 343.485 45.7C348.285 43.7 353.818 42.7 360.085 42.7C366.352 42.7 371.818 43.7 376.485 45.7C381.218 47.7 384.918 50.6667 387.585 54.6C390.252 58.4667 391.585 63.2 391.585 68.8C391.585 74.4 390.252 79.1333 387.585 83C384.918 86.8 381.218 89.7 376.485 91.7C371.818 93.7 366.352 94.7 360.085 94.7ZM360.085 84.7C363.552 84.7 366.652 84.1 369.385 82.9C372.185 81.6333 374.385 79.8333 375.985 77.5C377.585 75.1 378.385 72.2 378.385 68.8C378.385 65.4 377.585 62.5 375.985 60.1C374.385 57.6333 372.218 55.7667 369.485 54.5C366.752 53.2333 363.618 52.6 360.085 52.6C356.618 52.6 353.485 53.2333 350.685 54.5C347.885 55.7667 345.652 57.6 343.985 60C342.385 62.4 341.585 65.3333 341.585 68.8C341.585 72.2 342.385 75.1 343.985 77.5C345.585 79.8333 347.785 81.6333 350.585 82.9C353.385 84.1 356.552 84.7 360.085 84.7Z" fill="white"/>
<path d="M414.395 72.5V61.9H443.995C447.529 61.9 450.329 60.9667 452.395 59.1C454.462 57.1667 455.495 54.5 455.495 51.1C455.495 47.5667 454.462 44.8667 452.395 43C450.329 41.1333 447.529 40.2 443.995 40.2H415.995V93.5H402.695V28.8H442.795C446.395 28.8 449.762 29.2333 452.895 30.1C456.095 30.9667 458.862 32.3 461.195 34.1C463.595 35.9 465.462 38.2 466.795 41C468.129 43.8 468.795 47.1667 468.795 51.1C468.795 54.9667 468.129 58.2667 466.795 61C465.462 63.7333 463.595 65.9667 461.195 67.7C458.862 69.3667 456.095 70.6 452.895 71.4C449.762 72.1333 446.395 72.5 442.795 72.5H414.395Z" fill="white"/>
<path d="M494.513 22V33.4H479.413V22H494.513ZM480.413 43.8H493.413V93.5H480.413V43.8Z" fill="white"/>
<path d="M507.271 23.8H520.271V93.5H507.271V23.8ZM562.171 43.8L532.571 69.9L532.871 61.9L564.471 93.5H547.971L520.571 65.6L544.471 43.8H562.171Z" fill="white"/>
<path d="M597.78 94.7C591.514 94.7 585.98 93.7 581.18 91.7C576.447 89.7 572.747 86.8 570.08 83C567.414 79.1333 566.08 74.4 566.08 68.8C566.08 63.2 567.414 58.4667 570.08 54.6C572.747 50.6667 576.447 47.7 581.18 45.7C585.98 43.7 591.514 42.7 597.78 42.7C604.047 42.7 609.514 43.7 614.18 45.7C618.914 47.7 622.614 50.6667 625.28 54.6C627.947 58.4667 629.28 63.2 629.28 68.8C629.28 74.4 627.947 79.1333 625.28 83C622.614 86.8 618.914 89.7 614.18 91.7C609.514 93.7 604.047 94.7 597.78 94.7ZM597.78 84.7C601.247 84.7 604.347 84.1 607.08 82.9C609.88 81.6333 612.08 79.8333 613.68 77.5C615.28 75.1 616.08 72.2 616.08 68.8C616.08 65.4 615.28 62.5 613.68 60.1C612.08 57.6333 609.914 55.7667 607.18 54.5C604.447 53.2333 601.314 52.6 597.78 52.6C594.314 52.6 591.18 53.2333 588.38 54.5C585.58 55.7667 583.347 57.6 581.68 60C580.08 62.4 579.28 65.3333 579.28 68.8C579.28 72.2 580.08 75.1 581.68 77.5C583.28 79.8333 585.48 81.6333 588.28 82.9C591.08 84.1 594.247 84.7 597.78 84.7Z" fill="white"/>
<path d="M109.963 83.444C112.345 78.5653 114.063 73.3023 115 67.773C108.699 75.2062 99.4539 79.9192 89.2612 80.3085L79.6343 80.6762C72.4021 80.9524 66.4742 86.5146 65.7278 93.7247C64.7306 103.357 58.8833 111.416 50.762 115.563C53.104 115.851 55.4893 116 57.9093 116C60.2843 116 62.6259 115.857 64.9259 115.579C65.8109 113.941 66.3937 112.109 66.5961 110.154C68.0165 96.4336 79.2966 85.8495 93.0585 85.3239L102.685 84.9562C105.231 84.859 107.683 84.334 109.963 83.444Z" fill="#E1FF67"/>
<path d="M79.6223 111.785C87.2257 108.703 94.0267 104.051 99.6244 98.2293L93.5587 98.461C86.3266 98.7372 80.3986 104.299 79.6522 111.509C79.6427 111.601 79.6327 111.693 79.6223 111.785Z" fill="#E1FF67"/>
<path d="M109.611 31.8474C111.11 34.8138 112.362 37.9266 113.34 41.1587C111.763 43.8546 110.534 46.7906 109.717 49.9092L109.578 50.4412C107.075 60.001 98.6214 66.7948 88.761 67.1714L79.1341 67.5391C65.3722 68.0647 54.092 78.6489 52.6717 92.3688C51.9064 99.7605 45.7063 105.389 38.2867 105.428L24.6675 105.498C22.4715 103.954 20.3875 102.26 18.4301 100.433L24.4301 100.401C38.5489 100.328 50.347 89.6177 51.8032 75.5521C52.5496 68.342 58.4775 62.7799 65.7096 62.5036L75.3366 62.136C90.9742 61.5387 104.38 50.7644 108.35 35.6037L108.489 35.0717C108.781 33.9571 109.158 32.8801 109.611 31.8474Z" fill="#E1FF67"/>
<path d="M101.505 19.8227C99.2897 17.2865 96.8568 14.9454 94.236 12.8285C93.9109 13.6453 93.6333 14.4879 93.4067 15.3532L93.2674 15.8852C89.2976 31.046 75.8914 41.8202 60.2539 42.4175L50.6269 42.7852C43.3948 43.0614 37.4669 48.6235 36.7205 55.8336C35.2643 69.8992 23.4662 80.6096 9.34744 80.683L4.60649 80.7076C5.58033 82.9978 6.69701 85.2125 7.94532 87.3403L24.3621 87.255C31.7817 87.2164 37.9818 81.5879 38.7471 74.1962C40.1674 60.4763 51.4476 49.8921 65.2095 49.3665L74.8364 48.9988C84.6968 48.6222 93.1502 41.8284 95.6534 32.2687L95.7927 31.7367C96.9411 27.3508 98.9046 23.3263 101.505 19.8227Z" fill="#E1FF67"/>
<path d="M57.9093 0C66.9081 0 75.4274 2.05576 83.0248 5.72397C82.0638 7.71816 81.2848 9.82289 80.71 12.0182L80.5707 12.5502C78.0675 22.1099 69.6141 28.9038 59.7537 29.2804L50.1267 29.648C36.3649 30.1737 25.0847 40.7578 23.6643 54.4777C22.8991 61.8694 16.699 67.498 9.27935 67.5365L0.786333 67.5806C0.269116 64.4641 0 61.2635 0 58C0 25.9675 25.9269 0 57.9093 0Z" fill="#E1FF67"/>
</svg>
