<svg width="698" height="632" viewBox="0 0 698 632" fill="none" xmlns="http://www.w3.org/2000/svg">
<path d="M10 166.508V213.675C10 230.692 20.0376 246.107 35.6001 252.99V252.99C55.3509 261.726 65.5548 283.759 59.4426 304.473L58.2477 308.522C52.8295 326.884 58.8901 346.707 73.6496 358.9L74.3688 359.494C91.0789 373.298 96.7899 396.41 88.4324 416.408L82.1216 431.509C75.2403 447.975 81.5186 466.994 96.85 476.128V476.128C112.568 485.492 118.712 505.189 111.105 521.829L98.0951 550.289C91.2303 565.305 89.8352 582.251 94.1515 598.188L102.504 629.029" stroke="black" stroke-width="20"/>
<path d="M45.8457 156.101V203.268C45.8457 220.285 55.8833 235.7 71.4458 242.584V242.584C91.1966 251.32 101.401 273.353 95.2883 294.066L94.0934 298.116C88.6752 316.477 94.7358 336.3 109.495 348.493L110.215 349.087C126.925 362.891 132.636 386.003 124.278 406.001L117.967 421.102C111.086 437.568 117.364 456.588 132.696 465.721V465.721C148.413 475.085 154.558 494.783 146.951 511.422L133.941 539.882C127.076 554.899 125.681 571.844 129.997 587.781L138.35 618.622" stroke="black" stroke-width="20"/>
<path d="M81.6904 145.694V192.862C81.6904 209.878 91.728 225.294 107.291 232.177V232.177C127.041 240.913 137.245 262.946 131.133 283.66L129.938 287.709C124.52 306.071 130.58 325.894 145.34 338.086L146.059 338.681C162.769 352.485 168.48 375.596 160.123 395.595L153.812 410.696C146.931 427.161 153.209 446.181 168.54 455.315V455.315C184.258 464.679 190.402 484.376 182.796 501.015L169.786 529.475C162.921 544.492 161.526 561.437 165.842 577.375L174.195 608.215" stroke="black" stroke-width="20"/>
<path d="M117.536 135.288V182.455C117.536 199.472 127.574 214.887 143.136 221.77V221.77C162.887 230.506 173.091 252.539 166.979 273.253L165.784 277.302C160.366 295.664 166.426 315.487 181.186 327.68L181.905 328.274C198.615 342.078 204.326 365.19 195.969 385.188L189.658 400.289C182.776 416.755 189.055 435.774 204.386 444.908V444.908C220.104 454.272 226.248 473.969 218.642 490.609L205.631 519.069C198.766 534.085 197.371 551.031 201.688 566.968L210.04 597.809" stroke="black" stroke-width="20"/>
<path d="M153.382 124.881V172.048C153.382 189.065 163.419 204.48 178.982 211.364V211.364C198.733 220.1 208.937 242.133 202.824 262.846L201.63 266.896C196.211 285.257 202.272 305.081 217.031 317.273L217.751 317.867C234.461 331.671 240.172 354.783 231.814 374.781L225.503 389.882C218.622 406.348 224.9 425.368 240.232 434.502V434.502C255.949 443.865 262.094 463.563 254.487 480.202L241.477 508.662C234.612 523.679 233.217 540.624 237.533 556.562L245.886 587.402" stroke="black" stroke-width="20"/>
<path d="M189.227 114.474V161.641C189.227 178.658 199.264 194.073 214.827 200.956V200.956C234.577 209.692 244.781 231.725 238.669 252.439L237.474 256.488C232.056 274.85 238.117 294.673 252.876 306.866L253.595 307.46C270.306 321.264 276.016 344.376 267.659 364.374L261.348 379.475C254.467 395.941 260.745 414.961 276.077 424.094V424.094C291.794 433.458 297.938 453.155 290.332 469.795L277.322 498.255C270.457 513.271 269.062 530.217 273.378 546.154L281.731 576.995" stroke="black" stroke-width="20"/>
<path d="M225.072 104.067V151.234C225.072 168.251 235.11 183.666 250.672 190.55V190.55C270.423 199.286 280.627 221.319 274.515 242.032L273.32 246.082C267.902 264.443 273.962 284.266 288.722 296.459L289.441 297.053C306.151 310.857 311.862 333.969 303.505 353.967L297.194 369.068C290.313 385.534 296.591 404.554 311.922 413.687V413.687C327.64 423.051 333.784 442.749 326.178 459.388L313.167 487.848C306.303 502.865 304.907 519.81 309.224 535.747L317.576 566.588" stroke="black" stroke-width="20"/>
<path d="M260.918 93.6604V140.828C260.918 157.844 270.956 173.26 286.518 180.143V180.143C306.269 188.879 316.473 210.912 310.361 231.626L309.166 235.675C303.747 254.037 309.808 273.86 324.568 286.053L325.287 286.647C341.997 300.451 347.708 323.562 339.35 343.561L333.04 358.662C326.158 375.127 332.437 394.147 347.768 403.281V403.281C363.486 412.645 369.63 432.342 362.023 448.981L349.013 477.441C342.148 492.458 340.753 509.403 345.07 525.341L353.422 556.181" stroke="black" stroke-width="20"/>
<path d="M296.763 83.2537V130.421C296.763 147.438 306.8 162.853 322.363 169.736V169.736C342.114 178.472 352.317 200.505 346.205 221.219L345.01 225.268C339.592 243.63 345.653 263.453 360.412 275.646L361.131 276.24C377.842 290.044 383.553 313.156 375.195 333.154L368.884 348.255C362.003 364.721 368.281 383.741 383.613 392.874V392.874C399.33 402.238 405.475 421.935 397.868 438.575L384.858 467.035C377.993 482.051 376.598 498.997 380.914 514.934L389.267 545.775" stroke="black" stroke-width="20"/>
<path d="M332.608 72.8472V120.014C332.608 137.031 342.646 152.447 358.209 159.33V159.33C377.959 168.066 388.163 190.099 382.051 210.812L380.856 214.862C375.438 233.224 381.498 253.047 396.258 265.239L396.977 265.833C413.687 279.637 419.398 302.749 411.041 322.747L404.73 337.848C397.849 354.314 404.127 373.334 419.458 382.468V382.468C435.176 391.831 441.32 411.529 433.714 428.168L420.704 456.628C413.839 471.645 412.444 488.59 416.76 504.528L425.113 535.368" stroke="black" stroke-width="20"/>
<path d="M368.454 62.4404V109.608C368.454 126.624 378.492 142.04 394.054 148.923V148.923C413.805 157.659 424.009 179.692 417.897 200.406L416.702 204.455C411.284 222.817 417.344 242.64 432.104 254.833L432.823 255.427C449.533 269.231 455.244 292.342 446.887 312.341L440.576 327.442C433.694 343.908 439.973 362.927 455.304 372.061V372.061C471.022 381.425 477.166 401.122 469.559 417.761L456.549 446.221C449.684 461.238 448.289 478.183 452.606 494.121L460.958 524.961" stroke="black" stroke-width="20"/>
<path d="M404.299 52.0339V99.2011C404.299 116.218 414.336 131.633 429.899 138.517V138.517C449.65 147.253 459.854 169.286 453.741 189.999L452.547 194.049C447.128 212.41 453.189 232.233 467.948 244.426L468.668 245.02C485.378 258.824 491.089 281.936 482.731 301.934L476.42 317.035C469.539 333.501 475.817 352.521 491.149 361.654V361.654C506.866 371.018 513.011 390.716 505.404 407.355L492.394 435.815C485.529 450.832 484.134 467.777 488.45 483.714L496.803 514.555" stroke="black" stroke-width="20"/>
<path d="M440.145 41.6272V88.7944C440.145 105.811 450.182 121.227 465.745 128.11V128.11C485.495 136.846 495.699 158.879 489.587 179.592L488.392 183.642C482.974 202.004 489.035 221.827 503.794 234.019L504.513 234.613C521.223 248.417 526.934 271.529 518.577 291.528L512.266 306.629C505.385 323.094 511.663 342.114 526.994 351.248V351.248C542.712 360.611 548.856 380.309 541.25 396.948L528.24 425.408C521.375 440.425 519.98 457.37 524.296 473.308L532.649 504.148" stroke="black" stroke-width="20"/>
<path d="M475.99 31.2197V78.3869C475.99 95.4038 486.028 110.819 501.59 117.703V117.703C521.341 126.438 531.545 148.471 525.433 169.185L524.238 173.234C518.82 191.596 524.88 211.419 539.64 223.612L540.359 224.206C557.069 238.01 562.78 261.122 554.423 281.12L548.112 296.221C541.231 312.687 547.509 331.707 562.84 340.84V340.84C578.558 350.204 584.702 369.901 577.096 386.541L564.085 415.001C557.221 430.018 555.825 446.963 560.142 462.9L568.494 493.741" stroke="black" stroke-width="20"/>
<path d="M511.835 20.8132V67.9804C511.835 84.9973 521.873 100.413 537.435 107.296V107.296C557.186 116.032 567.39 138.065 561.278 158.778L560.083 162.828C554.664 181.19 560.725 201.013 575.485 213.205L576.204 213.8C592.914 227.604 598.625 250.715 590.267 270.714L583.957 285.815C577.075 302.28 583.354 321.3 598.685 330.434V330.434C614.403 339.797 620.547 359.495 612.94 376.134L599.93 404.594C593.065 419.611 591.67 436.556 595.987 452.494L604.339 483.334" stroke="black" stroke-width="20"/>
<path d="M547.681 10.4065V57.5737C547.681 74.5906 557.718 90.0059 573.281 96.8893V96.8893C593.032 105.625 603.235 127.658 597.123 148.372L595.928 152.421C590.51 170.783 596.571 190.606 611.33 202.799L612.049 203.393C628.76 217.197 634.471 240.309 626.113 260.307L619.802 275.408C612.921 291.874 619.199 310.893 634.531 320.027V320.027C650.248 329.391 656.393 349.088 648.786 365.727L635.776 394.187C628.911 409.204 627.516 426.15 631.832 442.087L640.185 472.927" stroke="black" stroke-width="20"/>
<path d="M583.526 0V47.1672C583.526 64.1841 593.564 79.5994 609.126 86.4828V86.4828C628.877 95.2187 639.081 117.252 632.969 137.965L631.774 142.015C626.356 160.376 632.416 180.199 647.176 192.392L647.895 192.986C664.605 206.79 670.316 229.902 661.959 249.9L655.648 265.001C648.767 281.467 655.045 300.487 670.376 309.62V309.62C686.094 318.984 692.238 338.682 684.632 355.321L671.621 383.781C664.757 398.798 663.362 415.743 667.678 431.68L676.031 462.521" stroke="black" stroke-width="20"/>
</svg>
